# AST/ASF file generated using VICON BodyLanguage
# -----------------------------------------------
:version 1.10
:name VICON
:units
  mass 1.0
  length 0.45
  angle deg
:documentation
   .ast/.asf automatically generated from VICON data using
   VICON BodyBuilder and BodyLanguage model FoxedUp or BRILLIANT.MOD
:root
   order TX TY TZ RX RY RZ
   axis XYZ
   position 0 0 0  
   orientation 0 0 0 
:bonedata
  begin
     id 1 
     name lhipjoint
     direction 0.653368 -0.678499 0.335782 
     length 2.51848 
     axis 0 0 0  XYZ
  end
  begin
     id 2 
     name lfemur
     direction 0.34202 -0.939693 0  
     length 6.57749  
     axis 0 0 20  XYZ
    dof rx ry rz
    limits (-160.0 20.0)
           (-70.0 70.0)
           (-60.0 70.0)
  end
  begin
     id 3 
     name ltibia
     direction 0.34202 -0.939693 0   
     length 7.94618   
     axis 0 0 20   XYZ
    dof rx
    limits (-10.0 170.0)
  end
  begin
     id 4 
     name lfoot
     direction 0.0811271 -0.222895 0.971461   
     length 2.31339   
     axis -90 7.62852e-016 20   XYZ
    dof rx rz
    limits (-45.0 90.0)
           (-70.0 20.0)
  end
  begin
     id 5 
     name ltoes
     direction 1.53568e-011 -4.21885e-011 1   
     length 1.15935   
     axis -90 7.62852e-016 20   XYZ
    dof rx
    limits (-90.0 20.0)
  end
  begin
     id 6 
     name rhipjoint
     direction -0.640058 -0.688614 0.340788   
     length 2.48149  
     axis 0 0 0  XYZ 
  end
  begin
     id 7 
     name rfemur
     direction -0.34202 -0.939693 0   
     length 6.57875   
     axis 0 0 -20   XYZ
    dof rx ry rz
    limits (-160.0 20.0)
           (-70.0 70.0)
           (-70.0 60.0)
  end
  begin
     id 8 
     name rtibia
     direction -0.34202 -0.939693 0   
     length 7.977   
     axis 0 0 -20   XYZ
    dof rx
    limits (-10.0 170.0)
 end
 begin
     id 9 
     name rfoot
     direction -0.0979793 -0.269196 0.958089   
     length 2.19857  
     axis -90 -7.62852e-016 -20   XYZ
    dof rx rz
    limits (-45.0 90.0)
           (-20.0 70.0)
  end
  begin
     id 10 
     name rtoes
     direction -1.53556e-011 -4.21868e-011 1   
     length 1.09838   
     axis -90 -7.62852e-016 -20   XYZ
    dof rx
    limits (-90.0 20.0)
  end
  begin
     id 11 
     name lowerback
     direction 0.0149039 0.998517 -0.0523597   
     length 2.10809   
     axis 0 0 0   XYZ
    dof rx ry rz
    limits (-20.0 45.0)
           (-30.0 30.0)
           (-30.0 30.0)
  end
  begin
     id 12 
     name upperback
     direction -0.00882659 0.999418 -0.0329624   
     length 2.1102   
     axis 0 0 0   XYZ
    dof rx ry rz
    limits (-20.0 45.0)
           (-30.0 30.0)
           (-30.0 30.0)
  end
  begin
     id 13 
     name thorax
     direction -0.0165585 0.999826 -0.0085833   
     length 2.11039   
     axis 0 0 0   XYZ
    dof rx ry rz
    limits (-20.0 45.0)
           (-30.0 30.0)
           (-30.0 30.0)
  end
  begin
     id 14 
     name lowerneck
     direction -0.0130877 0.999911 0.00260353   
     length 1.73253   
     axis 0 0 0   XYZ
    dof rx ry rz
    limits (-20.0 45.0)
           (-30.0 30.0)
           (-30.0 30.0)
  end
  begin
     id 15 
     name upperneck
     direction -0.0348454 0.928205 -0.370435   
     length 1.66692   
     axis 0 0 0   XYZ
    dof rx ry rz
    limits (-20.0 45.0)
           (-30.0 30.0)
           (-30.0 30.0)
  end
  begin
     id 16
     name head
     direction -0.00807754 0.992494 -0.122026  
     length 1.72765  
     axis 0 0 0   XYZ
    dof rx ry rz
    limits (-20.0 45.0)
           (-30.0 30.0)
           (-30.0 30.0)
  end
  begin
     id 17 
     name lclavicle
     direction 0.987582 0.144023 0.0627671  
     length 3.49235  
     axis 0 0 0   XYZ
    dof ry rz
    limits (-20.0 10.0)
           (0.0 20.0)
  end
  begin
     id 18 
     name lhumerus
     direction 1 -4.48958e-011 -1.45183e-018   
     length 5.41917   
     axis 180 -30 -90   XYZ
    dof rx ry rz
    limits (-60.0 90.0)
           (-90.0 90.0)
           (-90.0 90.0)
  end
  begin
     id 19
     name lradius
     direction 1 -4.48999e-011 5.75106e-027   
     length 2.44373   
     axis 180 -30 -90   XYZ
    dof rx
    limits (-10.0 170.0)
  end
  begin
     id 20
     name lwrist
     direction 1 -4.48987e-011 1.53461e-026   
     length 1.22186   
     axis -1.09697e-014 90 90   XYZ
    dof ry
    limits (-180.0 0.0)
 end
  begin
     id 21 
     name lhand
     direction 1 -4.48881e-011 3.06923e-026   
     length 0.727502   
     axis -1.95843e-014 90 90   XYZ
    dof rx rz
    limits (-90.0 90.0)
           (-45.0 45.0)
  end
  begin
     id 22 
     name lfingers
     direction 1 -4.48907e-011 6.13845e-026   
     length 0.586531   
     axis -3.91686e-014 90 90   XYZ
    dof rx
    limits (0.0 90.0)
  end
  begin
     id 23
     name lthumb
     direction 0.707107 -6.3487e-011 0.707107   
     length 0.842145   
     axis -90 45 2.85299e-015   XYZ
    dof rx rz
    limits (-45.0 45.0)
           (-45.0 45.0)
  end
  begin
     id 24 
     name rclavicle
     direction -0.980998 0.169556 0.0943023   
     length 3.29272  
     axis 0 0 0   XYZ 
    dof ry rz
    limits (-10.0 20.0)
           (-20.0 0.0)
  end
  begin
     id 25 
     name rhumerus
     direction -1 -1.83355e-005 2.45537e-005  
     length 5.58976   
     axis 180 30 90   XYZ
    dof rx ry rz
    limits (-90.0 60.0)
           (-90.0 90.0)
           (-90.0 90.0)
  end
  begin
     id 26 
     name rradius
     direction -1 -4.48967e-011 5.97228e-027   
     length 2.4806   
     axis 180 30 90   XYZ
    dof rx
    limits (-10.0 170.0)
  end
  begin
     id 27 
     name rwrist
     direction -1 -4.48963e-011 1.53461e-026   
     length 1.2403   
     axis -1.09697e-014 -90 -90   XYZ
    dof ry
    limits (-180.0 0.0)
  end
  begin
     id 28
     name rhand
     direction -1 -4.48881e-011 3.06923e-026   
     length 0.816009   
     axis -1.95843e-014 -90 -90   XYZ
    dof rx rz
    limits (-90.0 90.0)
           (-45.0 45.0)
  end
  begin
     id 29
     name rfingers
     direction -1 -4.49018e-011 6.13845e-026   
     length 0.657887   
     axis -3.91686e-014 -90 -90   XYZ
    dof rx
    limits (0.0 90.0)
  end
  begin
     id 30
     name rthumb
     direction -0.707107 -6.34872e-011 0.707107   
     length 0.944599   
     axis -90 -45 -2.85299e-015   XYZ
    dof rx rz
    limits (-45.0 45.0)
           (-45.0 45.0)
  end
:hierarchy
  begin
    root lhipjoint rhipjoint lowerback
    lhipjoint lfemur
    lfemur ltibia
    ltibia lfoot
    lfoot ltoes
    rhipjoint rfemur
    rfemur rtibia
    rtibia rfoot
    rfoot rtoes
    lowerback upperback
    upperback thorax
    thorax lowerneck lclavicle rclavicle
    lowerneck upperneck
    upperneck head
    lclavicle lhumerus
    lhumerus lradius
    lradius lwrist
    lwrist lhand lthumb
    lhand lfingers
    rclavicle rhumerus
    rhumerus rradius
    rradius rwrist
    rwrist rhand rthumb
    rhand rfingers
  end

#!OML:ASF F:\VICON\USERDATA\INSTALL\rory3\rory3.ASF
:FULLY-SPECIFIED
:DEGREES
77
root 0.147184 16.6731 -8.30886 31.4522 -21.3413 -9.89297
lowerback -18.8885 5.22127 -1.2804e-005
upperback -11.4505 6.69804 3.31086
thorax -2.27545 3.46998 4.59749
lowerneck -8.65033 -0.784675 2.65141
upperneck 35.3805 -3.20023 3.55691
head 13.3861 -0.639994 0.49328
rclavicle -9.35033e-014 -6.32135e-014
rhumerus -125.791 -30.0445 85.8684
rradius 12.517
rwrist 133.952
rhand 9.6177 8.5375
rfingers 7.12502
rthumb 34.7636 -18.0734
lclavicle -9.35033e-014 -6.32135e-014
lhumerus -66.2971 28.3534 31.4395
lradius 14.2411
lwrist -40.8738
lhand 0.835508 24.3387
lfingers 7.12502
lthumb 26.3904 52.522
rfemur -16.6497 11.7103 9.51336
rtibia 36.4565
rfoot -49.448 -25.5525
rtoes 59.4244
lfemur -41.2432 -3.58279 -22.6125
ltibia 35.4808
lfoot -43.6601 25.2479
ltoes 27.7925
78
root 0.185433 16.6656 -8.27824 31.321 -20.8092 -9.79348
lowerback -18.8664 5.28566 0.221615
upperback -11.386 6.75229 3.37701
thorax -2.203 3.48819 4.55515
lowerneck -9.19827 -0.954104 2.65722
upperneck 35.6334 -3.39228 3.27531
head 13.613 -0.742327 0.353209
rclavicle 4.05769e-014 1.19271e-015
rhumerus -126.575 -30.2018 88.6109
rradius 13.1084
rwrist 137.49
rhand 9.65535 7.93954
rfingers 7.12502
rthumb 34.7994 -18.6631
lclavicle 4.05769e-014 1.19271e-015
lhumerus -67.6987 28.8753 27.0928
lradius 13.4505
lwrist -44.6809
lhand 0.663019 25.5429
lfingers 7.12502
lthumb 26.2253 53.7508
rfemur -17.0862 11.5641 8.51638
rtibia 36.4384
rfoot -51.504 -22.5068
rtoes 60.04
lfemur -41.0671 -4.53209 -22.4681
ltibia 35.4021
lfoot -44.0636 25.395
ltoes 28.2782
79
root 0.221015 16.6604 -8.25632 31.2501 -20.3676 -9.64739
lowerback -18.9046 5.36606 0.287707
upperback -11.2668 6.84908 3.41019
thorax -2.05756 3.53452 4.57957
lowerneck -9.95196 -1.13322 2.64604
upperneck 35.8892 -3.62089 3.04376
head 13.8909 -0.853015 0.226432
rclavicle -7.80727e-014 -9.14409e-015
rhumerus -127.403 -30.5722 91.0642
rradius 13.6234
rwrist 140.463
rhand 9.39943 7.34324
rfingers 7.12502
rthumb 34.5565 -19.3152
lclavicle -7.80727e-014 -9.14409e-015
lhumerus -68.9355 29.4742 22.7104
lradius 12.9932
lwrist -48.3759
lhand 1.58585 27.2742
lfingers 7.12502
lthumb 27.1084 55.3477
rfemur -17.8082 11.6002 7.45331
rtibia 36.5387
rfoot -53.2947 -20.6485
rtoes 60.2473
lfemur -40.9973 -4.94032 -22.5586
ltibia 35.2954
lfoot -44.0231 25.2769
ltoes 28.4744
80
root 0.251812 16.6592 -8.24173 31.357 -20.05 -9.6746
lowerback -18.9291 5.51575 0.348623
upperback -11.2786 7.04041 3.45929
thorax -2.07452 3.6329 4.62971
lowerneck -10.1313 -1.35259 2.45198
upperneck 35.7869 -3.90898 3.08399
head 13.8902 -0.995614 0.23378
rclavicle -7.88181e-014 -3.33958e-014
rhumerus -128.404 -30.6025 94.0429
rradius 14.3219
rwrist 143.967
rhand 8.94996 7.0565
rfingers 7.12502
rthumb 34.1297 -19.6984
lclavicle -7.88181e-014 -3.33958e-014
lhumerus -69.3857 29.1968 19.8704
lradius 13.0032
lwrist -50.5758
lhand 2.34838 28.3848
lfingers 7.12502
lthumb 27.8377 56.3426
rfemur -18.8425 12.2082 6.48694
rtibia 36.7002
rfoot -55.6063 -18.5524
rtoes 60.4556
lfemur -41.0519 -4.85712 -22.6395
ltibia 35.1423
lfoot -43.4126 25.2126
ltoes 28.0879
81
root 0.284317 16.655 -8.22439 31.167 -19.7023 -9.44363
lowerback -18.8372 5.56124 0.247271
upperback -11.2101 7.1235 3.50647
thorax -2.0723 3.68408 4.74265
lowerneck -10.0566 -1.52548 2.16426
upperneck 35.5886 -4.09224 3.14265
head 13.791 -1.10913 0.282095
rclavicle 2.92213e-014 -3.02153e-014
rhumerus -128.566 -31.5611 95.7644
rradius 14.7005
rwrist 145.842
rhand 8.38914 7.03091
rfingers 7.12502
rthumb 33.5969 -19.8414
lclavicle 2.92213e-014 -3.02153e-014
lhumerus -69.4595 28.4686 17.8958
lradius 13.1488
lwrist -51.8026
lhand 2.08175 28.221
lfingers 7.12502
lthumb 27.5828 56.2197
rfemur -19.6813 12.7682 5.36069
rtibia 36.8958
rfoot -57.8875 -16.9736
rtoes 60.5337
lfemur -40.871 -5.04609 -22.9258
ltibia 35.0295
lfoot -43.1594 24.8541
ltoes 28.621
